<?xml version="1.0" standalone="no"?><!DOCTYPE svg PUBLIC "-//W3C//DTD SVG 1.1//EN"
  "http://www.w3.org/Graphics/SVG/1.1/DTD/svg11.dtd">
<svg t="1575197383577" class="icon" viewBox="0 0 1024 1024" version="1.1" xmlns="http://www.w3.org/2000/svg" p-id="3102"
     width="24" height="24" xmlns:xlink="http://www.w3.org/1999/xlink">
  <defs>
    <style type="text/css"></style>
  </defs>
  <path
    d="M234.55296 577.088l246.144 246.208a32 32 0 0 1 0 45.248l-45.248 45.248a32 32 0 0 1-45.248 0l-380.8-380.8a32 32 0 0 1 0-45.248l380.8-380.8a32 32 0 0 1 45.248 0l45.248 45.248a32 32 0 0 1 0 45.248L229.17696 449.088h759.552a32 32 0 0 1 32 32v64a32 32 0 0 1-32 32H234.55296z"
    fill="#000000" fill-opacity=".6" p-id="3103"></path>
</svg>
